<svg width="412" height="120" viewBox="0 0 412 120" fill="none" xmlns="http://www.w3.org/2000/svg">
<path d="M28 115C44.3333 119.167 87 112.2 127 51C177 -25.5 215.5 82.5 252.5 93.5C282.1 102.3 343.5 83.8333 370.5 73.5" stroke="black" stroke-dasharray="10 10"/>
<path fill-rule="evenodd" clip-rule="evenodd" d="M9.8913 91.6486C9.92491 82.814 17.9734 75.6765 27.8681 75.7064C37.7628 75.7365 45.7568 82.9227 45.7233 91.7573V91.9384C45.6014 97.6812 42.0101 102.989 37.6072 107.138C35.0892 109.472 32.2773 111.539 29.2275 113.297C28.412 113.927 27.2024 113.927 26.3869 113.297C21.8405 110.655 17.8501 107.319 14.5985 103.442C11.7004 100.061 10.055 95.9578 9.8913 91.7029V91.6486Z" stroke="#200E32" stroke-width="1.5" stroke-linecap="round" stroke-linejoin="round"/>
<path d="M27.8063 97.0833C30.9777 97.0833 33.5487 94.7879 33.5487 91.9563C33.5487 89.1246 30.9777 86.8292 27.8063 86.8292C24.6349 86.8292 22.064 89.1246 22.064 91.9563C22.064 94.7879 24.6349 97.0833 27.8063 97.0833Z" stroke="#200E32" stroke-width="1.5" stroke-linecap="round" stroke-linejoin="round"/>
<path fill-rule="evenodd" clip-rule="evenodd" d="M344.484 35.5036C344.533 21.0149 356.318 9.30947 370.807 9.35854C385.296 9.40792 397.001 21.1932 396.952 35.6819V35.979C396.774 45.3971 391.515 54.1022 385.068 60.9058C381.381 64.7346 377.263 68.1243 372.797 71.0072C371.603 72.0401 369.832 72.0401 368.638 71.0072C361.981 66.674 356.138 61.2032 351.376 54.8449C347.133 49.3004 344.723 42.5708 344.484 35.5928V35.5036Z" stroke="#200E32" stroke-width="1.5" stroke-linecap="round" stroke-linejoin="round"/>
<path d="M370.716 44.4167C375.36 44.4167 379.125 40.6521 379.125 36.0082C379.125 31.3644 375.36 27.5998 370.716 27.5998C366.073 27.5998 362.308 31.3644 362.308 36.0082C362.308 40.6521 366.073 44.4167 370.716 44.4167Z" stroke="#200E32" stroke-width="1.5" stroke-linecap="round" stroke-linejoin="round"/>
</svg>
