<svg width="1440" height="225" viewBox="0 0 1440 225" fill="none" xmlns="http://www.w3.org/2000/svg">
<path d="M0 224.984L48 205.926C96 186.867 192 148.75 288 139.267C384 129.877 480 149.029 576 171.248C672 193.375 768 218.477 864 219.22C960 220.057 1056 196.443 1152 186.867C1248 177.291 1344 181.568 1392 183.799L1440 185.938V-0.929687L1392 -0.929687C1344 -0.929687 1248 -0.929687 1152 -0.929687C1056 -0.929687 960 -0.929687 864 -0.929687C768 -0.929687 672 -0.929687 576 -0.929687C480 -0.929687 384 -0.929687 288 -0.929687C192 -0.929687 96 -0.929687 48 -0.929687L0 -0.929688L0 224.984Z" fill="#0C2D48"/>
</svg>
